<svg xmlns="http://www.w3.org/2000/svg" fill="#000000" class="bi bi-cart-plus" viewBox="0 0 16 16" id="Cart-Plus--Streamline-Bootstrap.svg"><desc>Cart Plus Streamline Icon: https://streamlinehq.com</desc><path d="M9.5682 4.864C9.5665 4.4616 9.1298 4.2121 8.7823 4.4148C8.6224 4.508 8.5237 4.6789 8.5229 4.864V6.432H6.9549C6.5526 6.4338 6.303 6.8704 6.5057 7.218C6.5989 7.3779 6.7698 7.4765 6.9549 7.4773H8.5229V9.0453C8.5247 9.4477 8.9613 9.6972 9.3089 9.4945C9.4688 9.4013 9.5674 9.2304 9.5682 9.0453V7.4773H11.1362C11.5386 7.4756 11.7881 7.0389 11.5855 6.6914C11.4922 6.5315 11.3213 6.4328 11.1362 6.432H9.5682Z" stroke-width="1"></path><path d="M0.6829 0.16C0.2806 0.1618 0.031 0.5984 0.2337 0.946C0.3269 1.1059 0.4978 1.2045 0.6829 1.2053H1.8432L2.2624 2.8852L3.8283 11.2322C3.8746 11.4793 4.0902 11.6584 4.3416 11.6587H5.3869C3.7775 11.6551 2.7678 13.3952 3.5695 14.7907C3.9431 15.4412 4.6367 15.8416 5.3869 15.84C6.9963 15.8365 7.9984 14.0921 7.1906 12.7C6.8174 12.0568 6.1306 11.6603 5.3869 11.6587H12.7042C11.0948 11.6551 10.0852 13.3952 10.8868 14.7907C11.2605 15.4412 11.954 15.8416 12.7042 15.84C14.3136 15.8365 15.3157 14.0921 14.5079 12.7C14.1347 12.0568 13.4479 11.6603 12.7042 11.6587H13.7496C14.001 11.6584 14.2166 11.4793 14.2628 11.2322L15.8308 2.8695C15.891 2.5481 15.6446 2.251 15.3176 2.2507H3.1812L2.7579 0.5562C2.6998 0.3234 2.4908 0.1601 2.2509 0.16ZM4.7754 10.6133L3.4029 3.296H14.6883L13.3158 10.6133ZM6.4322 13.7493C6.4322 14.554 5.5611 15.057 4.8642 14.6546C4.5408 14.4679 4.3416 14.1228 4.3416 13.7493C4.3416 12.9446 5.2127 12.4417 5.9096 12.8441C6.233 13.0308 6.4322 13.3759 6.4322 13.7493M13.7496 13.7493C13.7496 14.554 12.8785 15.057 12.1816 14.6546C11.8581 14.4679 11.6589 14.1228 11.6589 13.7493C11.6589 12.9446 12.53 12.4417 13.2269 12.8441C13.5503 13.0308 13.7496 13.3759 13.7496 13.7493" stroke-width="1"></path></svg>