<svg xmlns="http://www.w3.org/2000/svg" fill="none" viewBox="-0.5 -0.5 16 16" height="16" width="16" id="Logout--Streamline-Rounded----Material-Symbols.svg">
  <path fill="#030b26" d="M2.8125 13.125C2.5625 13.125 2.34375 13.03125 2.15625 12.84375C1.96875 12.65625 1.875 12.4375 1.875 12.1875V2.8125C1.875 2.5625 1.96875 2.34375 2.15625 2.15625C2.34375 1.96875 2.5625 1.875 2.8125 1.875H7.015625C7.1484375 1.875 7.2597812500000005 1.9202093749999998 7.3496875 2.010625C7.43946875 2.1009375 7.484375 2.212915625 7.484375 2.3465625C7.484375 2.480103125 7.43946875 2.5911468749999997 7.3496875 2.6796875C7.2597812500000005 2.7682281250000003 7.1484375 2.8125 7.015625 2.8125H2.8125V12.1875H7.015625C7.1484375 12.1875 7.2597812500000005 12.23271875 7.3496875 12.323125C7.43946875 12.4134375 7.484375 12.52540625 7.484375 12.659062500000001C7.484375 12.792593750000002 7.43946875 12.90365625 7.3496875 12.9921875C7.2597812500000005 13.080718749999999 7.1484375 13.125 7.015625 13.125H2.8125ZM11.328125 7.96875H6.09375C5.9609375 7.96875 5.8496250000000005 7.92353125 5.75984375 7.833125C5.6699375 7.7428125 5.625 7.63084375 5.625 7.4971875C5.625 7.36365625 5.6699375 7.252593750000001 5.75984375 7.1640625C5.8496250000000005 7.07553125 5.9609375 7.03125 6.09375 7.03125H11.296875L10.03125 5.765625C9.9375 5.671875 9.89321875 5.5625 9.8984375 5.4375C9.903656250000001 5.3125 9.953125 5.203125 10.046875 5.109375C10.140625 5.015625 10.25259375 4.96875 10.3828125 4.96875C10.513031250000001 4.96875 10.625 5.015625 10.71875 5.109375L12.796875 7.1875C12.890625 7.28125 12.9375 7.390625 12.9375 7.515625C12.9375 7.640625 12.890625 7.75 12.796875 7.84375L10.734375 9.90625C10.64271875 10 10.53384375 10.044281250000001 10.4078125 10.0390625C10.28178125 10.033843749999999 10.16984375 9.984375 10.07203125 9.890625C9.98234375 9.796875 9.9375 9.684906250000001 9.9375 9.5546875C9.9375 9.42446875 9.984375 9.3125 10.078125 9.21875L11.328125 7.96875Z" stroke-width="1"></path>
</svg>