<svg width="40" height="40" viewBox="0 0 40 40" fill="none" xmlns="http://www.w3.org/2000/svg">
<path d="M34.875 21.9583C34.9584 21.3333 35 20.6875 35 20C35 19.3333 34.9584 18.6667 34.8542 18.0417L39.0834 14.75C39.2656 14.5998 39.3901 14.391 39.4357 14.1593C39.4813 13.9276 39.4451 13.6872 39.3334 13.4792L35.3334 6.56251C35.2156 6.35326 35.0276 6.19246 34.8026 6.10857C34.5776 6.02468 34.3302 6.02312 34.1042 6.10417L29.125 8.10417C28.0834 7.31251 26.9792 6.64584 25.75 6.14584L25 0.854172C24.9632 0.615694 24.842 0.398354 24.6585 0.241623C24.475 0.0848918 24.2414 -0.000836468 24 6.15291e-06H16C15.5 6.15291e-06 15.1042 0.354172 15.0209 0.854172L14.2709 6.14584C13.0417 6.64584 11.9167 7.33334 10.8959 8.10417L5.91671 6.10417C5.45838 5.93751 4.93755 6.10417 4.68755 6.56251L0.708381 13.4792C0.458381 13.9167 0.541714 14.4583 0.95838 14.75L5.18755 18.0417C5.08338 18.6667 5.00005 19.3542 5.00005 20C5.00005 20.6458 5.04171 21.3333 5.14588 21.9583L0.916714 25.25C0.734472 25.4002 0.609951 25.609 0.564365 25.8407C0.518779 26.0724 0.55495 26.3128 0.666714 26.5208L4.66671 33.4375C4.91671 33.8958 5.43755 34.0417 5.89588 33.8958L10.875 31.8958C11.9167 32.6875 13.0209 33.3542 14.25 33.8542L15 39.1458C15.1042 39.6458 15.5 40 16 40H24C24.5 40 24.9167 39.6458 24.9792 39.1458L25.7292 33.8542C26.9584 33.3542 28.0834 32.6875 29.1042 31.8958L34.0834 33.8958C34.5417 34.0625 35.0625 33.8958 35.3125 33.4375L39.3125 26.5208C39.5625 26.0625 39.4584 25.5417 39.0625 25.25L34.875 21.9583ZM20 27.5C15.875 27.5 12.5 24.125 12.5 20C12.5 15.875 15.875 12.5 20 12.5C24.125 12.5 27.5 15.875 27.5 20C27.5 24.125 24.125 27.5 20 27.5Z" fill="#081142"/>
</svg>
